<svg xmlns="http://www.w3.org/2000/svg" viewBox="0 0 224.13 82.04"><defs><style>.cls-1{fill:#0b4765;}</style></defs><g id="katman_2" data-name="katman 2"><g id="katman_1-2" data-name="katman 1"><path class="cls-1" d="M60.61,26.67c-1.51-4.48-5.83-1.82-5.83-1.82S53.4,16.1,49.06,10.93a23.22,23.22,0,0,0-7.87-6,10,10,0,0,1,1.42,2.92C38.43,3.1,30.57,0,30.57,0s-7.87,3.1-12,7.86a10.36,10.36,0,0,1,1.42-2.92,23.43,23.43,0,0,0-7.87,6C7.73,16.1,6.35,24.85,6.35,24.85S2,22.19.53,26.67c-2.21,6.56,3.2,14.86,3.2,14.86a36.3,36.3,0,0,0-1.16,9.06c0,5.39,2.73,12.65,6,16.16a13.24,13.24,0,0,1,.06-6.19S8.82,71.94,21.42,78c0,0-1.23-3.84-1.56-5.18A27.89,27.89,0,0,0,30.57,82a28,28,0,0,0,10.71-9.26C40.94,74.12,39.71,78,39.71,78c12.61-6,12.77-17.4,12.77-17.4a13.09,13.09,0,0,1,.06,6.19c3.29-3.51,6-10.77,6-16.16a36,36,0,0,0-1.17-9.06S62.81,33.23,60.61,26.67ZM4.89,29.55c-1,1.5-.38,5.65-.38,5.65S2.48,29.27,4,28c1.75-1.5,2.67,2,2.67,2S5.47,28.67,4.89,29.55ZM36.31,64.42a12.49,12.49,0,0,1-11.49,0,18.15,18.15,0,0,1-5.1-4.21c.32-1.06,5.44-3.51,10.85-3.51s10.54,2.45,10.84,3.51A19.07,19.07,0,0,1,36.31,64.42Zm9.54-9.06c-.87,3-3.4,2.28-6.64.72-4.11-2-12.49-2.32-17.29,0-3.23,1.56-5.77,2.25-6.63-.72-1.08-3.68,1.5-8.92,3.51-9.54S22,47.23,25.32,48c0,0-4.18-2.44-4.18-5.95,0-.08,0-.15,0-.22A3.55,3.55,0,0,1,22,39.7C23.48,38,26.8,38,30.57,41.26,34.34,38,37.65,38,39.15,39.7A3.61,3.61,0,0,1,40,41.87v.22C40,45.6,35.81,48,35.81,48c3.37-.81,4.52-2.83,6.52-2.22S46.92,51.68,45.85,55.36ZM48.75,42c-4,5-5.45.56-7.75-2.82a6.47,6.47,0,0,0-3.9-2.66,3.56,3.56,0,0,0-2.5.29s.22-.77.53-.82c3.59-.54,4.77.56,7.49.53,4.81-.07,3.77-5.14,3.77-5.14.83-.56,2.25.11,2.25.11C47.29,29.1,44,29.18,40.77,31c-2.59,1.4-5.23,4.57-7,3.73s-1.36-3.19-1.34-3.24c-1.1,1.77.34,3,.28,3.79s-1.4,1.28-1.4,1.28,2-.22,1.86.89-2.58,1.73-2.58,1.73S28.1,38.52,28,37.4s1.85-.89,1.85-.89-1.34-.5-1.4-1.28,1.39-2,.29-3.79c0,0,.41,2.41-1.35,3.24S23,32.35,20.36,31c-3.26-1.77-6.51-1.85-7.86.54,0,0,1.42-.67,2.25-.11,0,0-1.05,5.07,3.76,5.14,2.72,0,3.9-1.07,7.49-.53.32,0,.54.82.54.82A3.59,3.59,0,0,0,24,36.52a6.48,6.48,0,0,0-3.89,2.66C17.83,42.56,16.43,47,12.38,42s-1.78-11.85-.16-14.58a5.82,5.82,0,0,0-2,1.39S12.11,22.07,22.54,25a10.82,10.82,0,0,0-4.24-2.28S23,21.62,30.57,29c7.58-7.36,12.27-6.24,12.27-6.24A10.64,10.64,0,0,0,38.6,25C49,22.07,50.87,28.81,50.87,28.81a5.92,5.92,0,0,0-2-1.39C50.53,30.15,52.71,37.15,48.75,42Zm-8.82-8.14A1.15,1.15,0,1,1,41.08,35,1.15,1.15,0,0,1,39.93,33.86Zm-18.72,0a1.16,1.16,0,1,1-1.16-1.15A1.15,1.15,0,0,1,21.21,33.86Zm35-4.31c-.59-.88-1.79.42-1.79.42s.91-3.51,2.67-2c1.52,1.31-.5,7.24-.5,7.24S57.26,31.05,56.25,29.55Z"/><path class="cls-1" d="M37.09,41c-1.21-.76-4.72,1.57-5.27,3.87A4.11,4.11,0,0,0,32.58,48c.25-2.6,1.54-3.1,1.54-3.1a3.21,3.21,0,0,0,0,1.55C37.76,45,38.05,41.62,37.09,41Z"/><path class="cls-1" d="M24,41c-1,.59-.67,4,2.93,5.38a3.21,3.21,0,0,0,0-1.55s1.3.5,1.55,3.1a4.07,4.07,0,0,0,.75-3.06C28.77,42.6,25.26,40.27,24,41Z"/><path class="cls-1" d="M113.06,66.23a3.19,3.19,0,0,1-1-.45l.53-1.18a3.1,3.1,0,0,0,.88.4,3.4,3.4,0,0,0,1,.16c.61,0,.92-.16.92-.46a.39.39,0,0,0-.26-.36,5.12,5.12,0,0,0-.85-.25,8.58,8.58,0,0,1-1.06-.29,1.76,1.76,0,0,1-.73-.51,1.32,1.32,0,0,1-.31-.93,1.62,1.62,0,0,1,.28-.93,1.89,1.89,0,0,1,.84-.66,3.55,3.55,0,0,1,1.38-.24,5,5,0,0,1,1.09.12,3.62,3.62,0,0,1,1,.37l-.5,1.19a3.24,3.24,0,0,0-1.56-.44,1.32,1.32,0,0,0-.69.14.43.43,0,0,0-.22.37.38.38,0,0,0,.26.34,5.16,5.16,0,0,0,.83.23,8.79,8.79,0,0,1,1.07.29,2,2,0,0,1,.73.5,1.33,1.33,0,0,1,.31.94,1.55,1.55,0,0,1-.28.91,1.86,1.86,0,0,1-.85.66,3.29,3.29,0,0,1-1.37.25A5.33,5.33,0,0,1,113.06,66.23Z"/><path class="cls-1" d="M122.05,66a2.83,2.83,0,0,1-1.12-1,2.87,2.87,0,0,1-.41-1.51,2.84,2.84,0,0,1,1.53-2.55,3.6,3.6,0,0,1,3.22,0,2.81,2.81,0,0,1,1.52,2.55,2.87,2.87,0,0,1-.4,1.51,2.83,2.83,0,0,1-1.12,1,3.6,3.6,0,0,1-3.22,0Zm2.38-1.15a1.41,1.41,0,0,0,.55-.56,1.89,1.89,0,0,0,0-1.69,1.51,1.51,0,0,0-.55-.57,1.55,1.55,0,0,0-.77-.2,1.52,1.52,0,0,0-.77.2,1.51,1.51,0,0,0-.55.57,1.89,1.89,0,0,0,0,1.69,1.41,1.41,0,0,0,.55.56,1.44,1.44,0,0,0,.77.21A1.46,1.46,0,0,0,124.43,64.87Z"/><path class="cls-1" d="M132.42,61.88v1.24h2.49v1.23h-2.49v1.93h-1.6V60.64h4.43v1.24Z"/><path class="cls-1" d="M140.43,61.91H138.7V60.64h5.05v1.27H142v4.37h-1.6Z"/><path class="cls-1" d="M156.25,60.64l-1.83,5.64h-1.71l-1.08-3.43-1.12,3.43H148.8L147,60.64h1.64l1.14,3.61,1.19-3.61h1.47l1.13,3.64,1.19-3.64Z"/><path class="cls-1" d="M163.6,65.19h-2.38l-.45,1.09h-1.62l2.49-5.64h1.57l2.5,5.64h-1.66ZM163.14,64l-.73-1.8-.72,1.8Z"/><path class="cls-1" d="M171.82,64.79H171v1.49h-1.6V60.64h2.58a3.22,3.22,0,0,1,1.33.26,1.91,1.91,0,0,1,1.18,1.83,2,2,0,0,1-.29,1.07,1.91,1.91,0,0,1-.82.71l1.22,1.77h-1.71Zm.75-2.67a1.06,1.06,0,0,0-.74-.22H171v1.65h.88a1.11,1.11,0,0,0,.74-.21.87.87,0,0,0,0-1.22Z"/><path class="cls-1" d="M183,65.05v1.23h-4.52V60.64h4.42v1.24h-2.84v.95h2.5V64h-2.5v1Z"/><path class="cls-1" d="M93.82,45V43.61H91.1v-8H104V53.05A37.73,37.73,0,0,1,90.83,55.4a23.57,23.57,0,0,1-7.75-1.09,10.82,10.82,0,0,1-4.84-3.24,12.22,12.22,0,0,1-2.48-5.35,35.68,35.68,0,0,1-.69-7.46,31.27,31.27,0,0,1,.84-7.76,11.9,11.9,0,0,1,2.82-5.3,11.51,11.51,0,0,1,5.22-3,29.44,29.44,0,0,1,8.08-1c.72,0,1.56,0,2.53.1s1.94.18,2.92.31,1.92.28,2.8.43a18.29,18.29,0,0,1,2.12.5l-1.61,8c-1.46-.24-2.84-.42-4.15-.55s-2.54-.19-3.67-.19a16.11,16.11,0,0,0-5,.52,2,2,0,0,0-1.43,2.09V47.22h3.53A7.2,7.2,0,0,0,93,46.81,1.8,1.8,0,0,0,93.82,45Z"/><path class="cls-1" d="M107.22,38.35a33.33,33.33,0,0,1,.78-7.72,12.26,12.26,0,0,1,2.63-5.33,11,11,0,0,1,4.89-3.08,28.74,28.74,0,0,1,15,0,10.94,10.94,0,0,1,4.87,3.08,12.15,12.15,0,0,1,2.63,5.33,33.29,33.29,0,0,1,.79,7.72,34.25,34.25,0,0,1-.72,7.46,12.24,12.24,0,0,1-2.52,5.33,11,11,0,0,1-4.87,3.19A23.73,23.73,0,0,1,123,55.4a23.75,23.75,0,0,1-7.71-1.07,10.86,10.86,0,0,1-4.86-3.19,12.25,12.25,0,0,1-2.53-5.33A34.93,34.93,0,0,1,107.22,38.35Zm11.52-5.44V46.48h4.47a7.46,7.46,0,0,0,3.19-.5q1-.49,1-2.28V30.13h-4.51a7.36,7.36,0,0,0-3.13.5C119.07,31,118.74,31.73,118.74,32.91Z"/><path class="cls-1" d="M161.83,54.61H142.59V22H160c3.21,0,5.51.61,6.88,1.83a6.7,6.7,0,0,1,2,5.3,9.55,9.55,0,0,1-1.29,5.41,6.1,6.1,0,0,1-3.53,2.51v.3q6.47,1.08,6.47,8.61a9,9,0,0,1-2.12,6.28Q166.31,54.61,161.83,54.61ZM156.7,29.13h-3.39V34h3.3c1.37,0,2-.81,2-2.43S158,29.13,156.7,29.13Zm.8,12.48h-4.19V47h4.1q2.28,0,2.28-2.7C159.69,42.5,159,41.61,157.5,41.61Z"/><path class="cls-1" d="M195.73,42.31H185v3.95h13.13v8.35H174.29V22h23.58l-1.34,8.35H185v4.39h10.72Z"/><path class="cls-1" d="M224.13,54.61H202.7V22h10.71V46.26h10.72Z"/></g></g></svg>